<svg id="圖層_1" data-name="圖層 1" xmlns="http://www.w3.org/2000/svg" viewBox="0 0 149.25 149.25"><defs><style>.cls-1{fill:#dd5000;}.cls-2{fill:none;stroke:#dd5000;stroke-miterlimit:10;stroke-width:6px;}</style></defs><title>USER(ORANGE)</title><path class="cls-1" d="M88,79a21.61,21.61,0,0,0,8.62-17.25V56.5a21.65,21.65,0,0,0-43.29,0v5.24a21.6,21.6,0,0,0,8.4,17.08C53.13,80.3,43.46,83.75,39,91.68c-1,1.83-1.37,5.86-1.48,8.26v11.93a3.29,3.29,0,1,0,6.57,0V100.1a29,29,0,0,1,.64-5.19C49.1,87.12,63,84.35,74.55,84.35s26.36,2.91,30.81,11a24.9,24.9,0,0,1,.55,5.17v10.87a3.29,3.29,0,1,0,6.57,0V100.47c0-2.24-.28-6.28-1.31-8.15C106.71,84.16,96.72,80.57,88,79ZM59.93,56.5a15.07,15.07,0,0,1,30.15,0v5.24a15.07,15.07,0,0,1-30.15,0Z" transform="translate(-0.38 -0.38)"/><circle class="cls-2" cx="74.63" cy="74.63" r="71.63"/></svg>