<svg id="Layer_1" data-name="Layer 1" xmlns="http://www.w3.org/2000/svg" viewBox="0 0 150 137.1"><defs><style>.cls-1{fill:#db5326;}</style></defs><title>車站資訊(ORANGE)</title><path class="cls-1" d="M119.19,58v56.07a3.06,3.06,0,1,0,6.11,0V58a25.73,25.73,0,1,0-6.11,0Zm3-45.41a19.74,19.74,0,1,1-19.61,19.73A19.69,19.69,0,0,1,122.24,12.6Z" transform="translate(0 -6.45)"/><path class="cls-1" d="M60.75,69a3,3,0,0,0-4.15-1.22A3.08,3.08,0,0,0,55.39,72l4.9,9H37l4.9-9a3.08,3.08,0,0,0-1.22-4.17A3,3,0,0,0,36.53,69L.37,135.67a3.1,3.1,0,0,0,1.22,4.18,3.1,3.1,0,0,0,1.46.37,3.07,3.07,0,0,0,2.69-1.6l6.64-12.24H84.91l6.64,12.24a3.06,3.06,0,0,0,2.69,1.6,3.06,3.06,0,0,0,2.68-4.55Zm2.88,18.13,6.26,11.54H27.4l6.26-11.54ZM15.72,120.23l8.51-15.69v.32h49l8.35,15.37Z" transform="translate(0 -6.45)"/><path class="cls-1" d="M110.8,94.58a3,3,0,0,0,4.31-.29,3.08,3.08,0,0,0-.29-4.34L90.38,68.45a3,3,0,0,0-4.31.3,3.09,3.09,0,0,0,.29,4.34Z" transform="translate(0 -6.45)"/><path class="cls-1" d="M149,120l-15.1-13.29a3.05,3.05,0,0,0-4.31.29,3.09,3.09,0,0,0,.29,4.34l14.06,12.37V137.4H105.94V121.51a3.13,3.13,0,0,0-.47-1.65L73.38,69.12a3.06,3.06,0,1,0-5.16,3.3l31.61,50v18.07a3.06,3.06,0,0,0,3.06,3.07h44.05a3.06,3.06,0,0,0,3.06-3.07v-18.2A3.06,3.06,0,0,0,149,120Z" transform="translate(0 -6.45)"/><path class="cls-1" d="M129.45,36.41h-6.58a2.48,2.48,0,0,1-2.47-2.48V22.35a2.47,2.47,0,1,1,4.93,0v9.1h4.12a2.48,2.48,0,0,1,0,5Z" transform="translate(0 -6.45)"/></svg>