<?xml version="1.0" encoding="utf-8"?>
<!-- Generator: Adobe Illustrator 21.0.0, SVG Export Plug-In . SVG Version: 6.00 Build 0)  -->
<svg version="1.1" id="圖層_1" xmlns="http://www.w3.org/2000/svg" xmlns:xlink="http://www.w3.org/1999/xlink" x="0px" y="0px"
	 viewBox="0 0 150 150" style="enable-background:new 0 0 150 150;" xml:space="preserve">
<style type="text/css">
	.st0{fill:#DD5000;stroke:#DD5000;stroke-width:0.25;stroke-miterlimit:10;}
</style>
<g>
	<path class="st0" d="M149.8,29.9c0-5.1-4.1-9.2-9.2-9.2H9.4c-5.1,0-9.2,4.1-9.2,9.2v90.7c0,5.1,4.1,9.2,9.2,9.2h131.5
		c5.1,0,9.2-4.1,8.9-9.6L149.8,29.9L149.8,29.9z M143.7,61.2H6.5V52h137.2V61.2z M6.2,30.3c0-1.9,1.6-3.2,3.2-3.2v-0.3h131.2
		c1.9,0,3.2,1.6,3.2,3.2v16H6.2V30.3z M143.7,120.6c0,1.9-1.6,3.2-3.2,3.2H9.4c-1.9,0-3.2-1.6-3.2-3.2v-53h137.6V120.6z"/>
</g>
</svg>
