<?xml version="1.0" encoding="utf-8"?>
<!-- Generator: Adobe Illustrator 23.1.1, SVG Export Plug-In . SVG Version: 6.00 Build 0)  -->
<svg version="1.1" xmlns="http://www.w3.org/2000/svg" xmlns:xlink="http://www.w3.org/1999/xlink" x="0px" y="0px"
	 viewBox="0 0 50 50" style="enable-background:new 0 0 50 50;" xml:space="preserve">
<style type="text/css">
	.st0{display:none;}
	.st1{display:inline;fill:none;stroke:#767777;stroke-width:2;stroke-linecap:round;stroke-linejoin:round;stroke-miterlimit:10;}
	.st2{display:inline;fill:none;}
	.st3{fill:#767777;}
	.st4{display:inline;fill:#767777;}
	.st5{display:inline;fill:#FFFFFF;}
	.st6{fill:none;stroke:#767777;stroke-width:2;stroke-miterlimit:10;}
	.st7{fill:#FFFFFF;}
	.st8{display:inline;}
	.st9{fill:none;stroke:#767777;stroke-width:2;stroke-linejoin:round;stroke-miterlimit:10;}
	.st10{display:none;fill:none;stroke:#767777;stroke-width:2;stroke-linejoin:round;stroke-miterlimit:10;}
	.st11{display:inline;fill:none;stroke:#767777;stroke-width:2;stroke-linejoin:round;stroke-miterlimit:10;}
	.st12{display:inline;fill:none;stroke:#767777;stroke-width:2;stroke-linecap:round;stroke-miterlimit:10;}
	.st13{display:inline;fill:#FCFCFC;}
	.st14{display:inline;fill:none;stroke:#767777;stroke-width:2;stroke-miterlimit:10;}
	
		.st15{display:inline;fill:#FFFFFF;stroke:#767777;stroke-width:2;stroke-linecap:round;stroke-linejoin:round;stroke-miterlimit:10;}
	
		.st16{display:inline;fill:none;stroke:#767777;stroke-width:1.5;stroke-linecap:round;stroke-linejoin:round;stroke-miterlimit:10;}
	.st17{fill:#DB5009;}
	.st18{fill:none;stroke:#DB5009;stroke-width:2;stroke-linecap:round;stroke-miterlimit:10;}
	.st19{display:inline;fill:none;stroke:#DB5009;stroke-width:2;stroke-linecap:round;stroke-miterlimit:10;}
</style>
<g id="圖層_4" class="st0">
	<path class="st1" d="M40.2,13.8c-5.4,1.4-11.8,2-17.7,2s-12.3-0.6-17.7-2l-1,4.1c3.9,1,8.3,1.7,12.5,2v26.4h4.2V34.1h4.2v12.2h4.2
		V19.9c4.2-0.3,8.6-1,12.5-2L40.2,13.8z M22.5,13.8c2.3,0,4.2-1.8,4.2-4.1s-1.9-4.1-4.2-4.1s-4.2,1.8-4.2,4.1S20.3,13.8,22.5,13.8z"
		/>
</g>
<g id="圖層_3" class="st0">
	<path class="st2" d="M1.7,1.7h50v48.7h-50V1.7z"/>
	<g>
		<path class="st3" d="M27,5h22.5v23.9H27V5z"/>
		<path class="st4" d="M46.8,9H33.6V7h-1.9v19.9h1.9v-8h13.1l-1.9-5L46.8,9z M41.1,14c0,1.1-0.8,2-1.9,2c-1,0-1.9-0.9-1.9-2
			s0.8-2,1.9-2C40.3,12,41.1,12.9,41.1,14z"/>
	</g>
	<polygon class="st5" points="35.8,22.9 33.1,22.9 32.1,22.9 32.1,13.4 35.8,13.4 35.8,18.6 	"/>
	<polygon class="st5" points="47.8,21.2 36.3,21.2 32.5,21.2 32.5,8.4 47.8,8.4 47.8,15.4 	"/>
</g>
<g id="圖層_6" class="st0">
	<path class="st1" d="M28.4,23.3c-3.8,1-8.3,1.4-12.5,1.4s-8.6-0.4-12.5-1.4l-0.7,2.9c2.7,0.7,5.9,1.2,8.8,1.4v18.6h2.9v-8.6h2.9
		v8.6h2.9V27.6c2.9-0.2,6.1-0.7,8.8-1.4L28.4,23.3z M16,23.3c1.6,0,2.9-1.3,2.9-2.9s-1.3-2.9-2.9-2.9s-2.9,1.3-2.9,2.9
		S14.4,23.3,16,23.3z"/>
</g>
<g id="flag" class="st0">
	<ellipse class="st6" cx="27.5" cy="36.8" rx="6.8" ry="3.3"/>
	<rect x="12.2" y="39.6" class="st7" width="8" height="4.7"/>
	<rect x="13.2" y="4.4" class="st7" width="3.4" height="35.7"/>
	<line class="st1" x1="8.2" y1="45.3" x2="34.3" y2="45.3"/>
	<line class="st1" x1="37.2" y1="45.3" x2="41.1" y2="45.3"/>
	<g class="st8">
		<path class="st9" d="M42.1,10.4H14.3V6.6l0,0v37.9l0,0V29.3h27.7l-4-9.5L42.1,10.4z M30.2,19.8c0,2.1-1.8,3.8-4,3.8s-4-1.7-4-3.8
			s1.8-3.8,4-3.8S30.2,17.8,30.2,19.8z"/>
		<path class="st10" d="M0.5,2.8H48v45.5H0.5V2.8z"/>
	</g>
</g>
<g id="flag_x5F_person" class="st0">
	<ellipse class="st11" cx="10.2" cy="18.1" rx="4.2" ry="4.6"/>
	<path class="st11" d="M17.8,39.5V27.9c0-1.9-3.4-5.2-7.6-5.2S2.5,26,2.5,27.9v11.5h3.2l0,5.7h8.6l0-5.7H17.8z"/>
	<line class="st12" x1="25" y1="45" x2="46.9" y2="45.1"/>
	<line class="st11" x1="46.9" y1="45.1" x2="46.9" y2="41.8"/>
	<circle class="st1" cx="41.8" cy="36.8" r="2"/>
	<line class="st12" x1="28.6" y1="36.8" x2="37.7" y2="36.8"/>
	<rect x="37.7" y="35.5" class="st5" width="1.1" height="2.2"/>
	<rect x="31.6" y="35.5" class="st5" width="1.1" height="2.2"/>
	<rect x="24.4" y="35.5" class="st5" width="1.1" height="2.2"/>
	<path class="st13" d="M13.3,25.4c0-1.7,1.7-3.9,1.7-3.9l3.1,2.5l2.5,4.1l4.3,1.1l0.6,7l-2.2,10H12.8v-2l-2.2-0.9l0.6-14.5
		C11.3,28.7,13.3,26.4,13.3,25.4z"/>
	<ellipse class="st11" cx="18.1" cy="25.4" rx="3" ry="3.3"/>
	<path class="st1" d="M23.6,41.1v-8.3c0-1.4-2.5-3.7-5.5-3.7s-5.5,2.4-5.5,3.7v8.3h2.3l0,4.1h6.2l0-4.1H23.6z"/>
	<line class="st14" x1="46.9" y1="40.9" x2="46.9" y2="36.9"/>
	<line class="st12" x1="46.9" y1="36.8" x2="44.1" y2="36.8"/>
	<g>
		<path class="st11" d="M47.5,10.1h-19V7.4l0,0v29.3V34V23.4h19l-2.7-6.6L47.5,10.1z M39.3,16.8c0,1.5-1.2,2.7-2.7,2.7
			s-2.7-1.2-2.7-2.7s1.2-2.7,2.7-2.7S39.3,15.3,39.3,16.8z"/>
		<path class="st9" d="M18.8,4.8h32.8v31.9H18.8V4.8z"/>
	</g>
	<path class="st2" d="M29.8,10.5h24v24h-24V10.5z"/>
	<path class="st11" d="M35.9,12.7c-3.9,0-7,3.1-7,7c0,5.2,7,13,7,13s7-7.8,7-13C42.9,15.9,39.8,12.7,35.9,12.7z M35.9,22.2
		c-1.4,0-2.5-1.1-2.5-2.5c0-1.4,1.1-2.5,2.5-2.5c1.4,0,2.5,1.1,2.5,2.5C38.4,21.1,37.3,22.2,35.9,22.2z"/>
</g>
<g id="圖層_10" class="st0">
	<ellipse class="st11" cx="10.6" cy="14.1" rx="4.2" ry="4.9"/>
	<path class="st11" d="M18.3,36.9V24.6c0-2-3.4-5.6-7.6-5.6S3,22.6,3,24.6v12.3h3.2l0,6.1h8.6l0-6.1H18.3z"/>
	<line class="st12" x1="24.4" y1="42.8" x2="46.3" y2="42.9"/>
	<line class="st11" x1="46.3" y1="42.9" x2="46.3" y2="39.6"/>
	<line class="st12" x1="28.8" y1="34.5" x2="43.6" y2="34.5"/>
	<rect x="40.7" y="33.5" class="st5" width="1.1" height="2.2"/>
	<rect x="32" y="33.3" class="st5" width="1.1" height="2.2"/>
	<rect x="23.8" y="33.3" class="st5" width="1.1" height="2.2"/>
	<circle class="st15" cx="41.2" cy="34.4" r="2"/>
	<path class="st13" d="M14.8,21.3c0-1.7,0.7-2.8,0.7-2.8l4.1,3.3l2.5,4.1l4.3,1.1l0.6,7l-2.2,10H14.3l0-2.1l-2.1,0l0.5-15.4
		C12.7,26.5,14.8,22.4,14.8,21.3z"/>
	<ellipse class="st11" cx="19.5" cy="21.2" rx="3" ry="3.7"/>
	<path class="st1" d="M24.6,38.4v-9.1c0-1.5-2.5-4.1-5.5-4.1s-5.5,2.6-5.5,4.1v9.1h2.3l0,4.5h6.2l0-4.5H24.6z"/>
	<line class="st14" x1="46.3" y1="38.7" x2="46.3" y2="34.6"/>
	<line class="st12" x1="46.3" y1="34.5" x2="43.6" y2="34.5"/>
	<path class="st2" d="M29.2,8.3h24v24h-24V8.3z"/>
	<path class="st11" d="M35.8,9.5c-3.9,0-7,3.1-7,7c0,5.2,7,13,7,13s7-7.8,7-13C42.8,12.6,39.7,9.5,35.8,9.5z M35.8,19
		c-1.4,0-2.5-1.1-2.5-2.5c0-1.4,1.1-2.5,2.5-2.5c1.4,0,2.5,1.1,2.5,2.5C38.3,17.8,37.2,19,35.8,19z"/>
</g>
<g id="taiwan" class="st0">
	<path class="st1" d="M20.8,5.9l4.1-1.1l1.2-2.3h1.6c0,0,1.1,1.8,1.5,1.8c0.4-0.1,1.3-0.5,1.8,0s1.1,1.5,1.2,1.8
		c0.1,0.2-1.7,2.8-1.7,2.8l1.2,3.5c0,0-1.1,1.8-1.3,3.2c-0.2,1.3-1.9,1.8-1.9,1.8s0.4,3.2-0.1,4.5s-2.6,10.8-3.5,11.7
		c-1,0.9-1.5,4-4.2,4.9c-2.7,0.9-1.4,9.4-1.4,9.4l-2.3,1.2c0,0-3.4-8-6-8.9c-2.6-0.9-2.7-6.4-2.7-6.4s0.7-1.9,1-3.6
		c0.3-2.5-0.1-4-0.1-4l7.7-14.1c0,0,4.4-4.3,3.9-5.6C20.7,6.1,20.7,6,20.8,5.9z"/>
	<ellipse class="st5" cx="27" cy="25.9" rx="10.2" ry="10.1"/>
	<path class="st3" d="M34.4,31.5h-1L33,31.2c1.3-1.5,2-3.4,2-5.5c0-4.7-3.8-8.4-8.4-8.4s-8.4,3.8-8.4,8.4s3.8,8.4,8.4,8.4
		c2.1,0,4-0.8,5.5-2l0.4,0.4v1l6.5,6.5l1.9-1.9L34.4,31.5z M26.6,31.5c-3.2,0-5.8-2.6-5.8-5.8s2.6-5.8,5.8-5.8s5.8,2.6,5.8,5.8
		S29.9,31.5,26.6,31.5z"/>
	<circle class="st14" cx="26.9" cy="25.9" r="8.2"/>
	<line class="st12" x1="39.7" y1="38.4" x2="33.4" y2="31.9"/>
	<path class="st3" d="M27.1,28.7l2.7,1.2c0,0-0.2,1.3-1.3,1.7c-1,0.4-1.5,0.2-1.7,0.2c-0.3-0.1-0.9-0.5-0.7-1.5
		C26.3,29.3,27.1,28.7,27.1,28.7z"/>
	<path class="st3" d="M23,25.2c-0.1,0-0.2-0.1-0.1-0.2c0.1-0.7,0.3-3.2,0.8-3.8c0.6-0.8,1.5-1.6,2.7-1s1.2,1.6,1,1.9
		c-0.2,0.3-1,2.9-1.4,3.1C25.6,25.4,23.6,25.2,23,25.2z"/>
	<path class="st3" d="M25.8,26.1c0,0,0.5,1.4-0.3,2.4c-0.2,0.2-1.3,0.4-1.8,0.1c-0.5-0.3-1.3-1.5-1-2.4
		C22.9,25.1,25.8,26.1,25.8,26.1z"/>
	<path class="st3" d="M27.5,28.2c0,0,0-2.5,0-2.9c0-0.4,0.1-1.5,1.1-1.5c0.9,0,2,0,2.3,1.3s-0.1,4-0.7,4.1
		C29.5,29.2,27.5,28.2,27.5,28.2z"/>
</g>
<g id="圖層_7" class="st0">
	<g class="st8">
		<g>
			<path class="st3" d="M42.1,4.9c0,5.6-1.9,9.2-4.8,11.5c-1,0.8-2.3,1.5-3.6,1.9v28.4h-4.2V34.2h-4.2v12.5h-4.2V21.8
				c-0.6,0.2-1,0.4-1.3,0.6c-1.1,0.9-3.7,1.7-3.9,5.5h-4.2c0-4.3,1.7-5.9,5.4-9c2.3-1.9,6-3.6,10.2-3.6c4.2,0,5.6-1,7.3-2.2
				c1-0.8,3.2-2.5,3.2-8.2H42.1 M27.5,4.9c2.3,0,4.2,1.9,4.2,4.2s-1.9,4.2-4.2,4.2c-2.3,0-4.2-1.9-4.2-4.2S25.2,4.9,27.5,4.9
				 M17.1,36.2v9.5H7.8v-9.5H17.1 M42.1,2.9H38c-1.1,0-2,0.9-2,2c0,4.7-1.5,6-2.4,6.6l0,0c-0.2,0.2-0.4,0.3-0.6,0.4
				c0.5-0.9,0.7-1.9,0.7-2.9c0-3.4-2.8-6.2-6.2-6.2s-6.2,2.8-6.2,6.2c0,1.9,0.9,3.6,2.2,4.7c-2.8,0.6-5.4,1.9-7.5,3.6
				c-3.7,3.2-6.1,5.3-6.1,10.6c0,1.1,0.9,2,2,2h4.2c1.1,0,1.9-0.8,2-1.9c0.1-1.4,0.6-2.1,1.2-2.7v21.3c0,1.1,0.9,2,2,2h4.2
				c1.1,0,2-0.9,2-2V36.2h0.2v10.5c0,1.1,0.9,2,2,2h4.2c1.1,0,2-0.9,2-2v-27c1-0.5,2-1,2.8-1.7c3.7-2.9,5.6-7.3,5.6-13
				C44.1,3.8,43.3,2.9,42.1,2.9L42.1,2.9z M42.1,6.9L42.1,6.9L42.1,6.9L42.1,6.9z M17.1,34.2H7.8c-1.1,0-2,0.9-2,2v9.5
				c0,1.1,0.9,2,2,2h9.3c1.1,0,2-0.9,2-2v-9.5C19.1,35,18.2,34.2,17.1,34.2L17.1,34.2z"/>
		</g>
	</g>
	<path class="st1" d="M6.6,11.2"/>
	<path class="st1" d="M6.4,14.5"/>
	<circle class="st4" cx="9.1" cy="47.4" r="1.3"/>
	<circle class="st4" cx="15.8" cy="47.4" r="1.3"/>
	<rect x="10.6" y="31.8" class="st16" width="3.9" height="3.3"/>
	<path class="st2" d="M-27.1,6.7c0,0,2.2-55.5,19.3-66.2S24.2-67,24.2-67s15.1,3.3,16.3,16c1.2,12.6-2.2,20.6-2.2,20.6L18,7.5
		L-27.1,6.7z"/>
	<path class="st2" d="M-28.1,17.2h45.1c0,0,4.9,23.4,0,30.2s-9.7,13-17.9,12.3c-8.1-0.7-15.6-4.4-20.5-12.3s-6.8-13.9-6.8-13.9V17.2
		z"/>
	<path class="st2" d="M42.1,50L42,7.5c0,0,3.9-20.3,19.6-22.4S90-3.3,92.5,5.9s-0.3,29.2-2.2,35.1c-1.8,5.8-9.5,24.1-11.3,24.3
		C77.2,65.4,42.1,50,42.1,50z"/>
</g>
<g id="lugguge">
	<g>
		<path class="st17" d="M32.2,2.2c0.4,0,0.7,0,1.1,0.1c1.3,0.4,2.4,1.4,2.8,2.8c0.7,2.7-1.3,5.1-3.9,5.1c-0.4,0-0.7,0-1.1-0.1
			c-1.3-0.4-2.4-1.4-2.8-2.8C27.6,4.6,29.6,2.2,32.2,2.2 M31.1,12.3c1.4,0,2.8,0.7,3.7,2l2.8,3.1c0.2,0.2,0.3,0.3,0.6,0.4
			c2,1,7.3,2.3,7.3,3.5c0,0,0,1.3-0.5,1.7c-0.1,0.1-0.3,0.1-0.6,0.1c-2,0-7.9-1-9.7-2.7l-1.3,6.9l3.5,3.4c0.4,0.4,0.7,1,0.7,1.6
			v14.1h-4V35.3c0-0.6-0.2-1.2-0.7-1.6l-3.5-3.4l-3.6,16.1h-4.2c0,0,6.5-26.7,5.4-27.5c-0.3-0.2-0.7-0.3-1.1-0.3c-1.5,0-3,1.7-3,1.7
			s-3.6,5.3-5.3,5.7c-0.1,0-0.2,0-0.2,0c-0.6,0-1.3-0.5-1.3-0.5c-1-0.8-1.2-2.2-0.3-3.2c0,0,3-3.5,3.9-4.4
			c4.5-4.3,10.1-5.4,10.1-5.4C30,12.4,30.6,12.3,31.1,12.3 M9.5,29.4l4.2,1.1l-2.9,13.7l-4.2-1.1L9.5,29.4 M32.2,0.2
			c-1.9,0-3.6,0.9-4.8,2.4c-1.1,1.5-1.5,3.4-1,5.3c0.3,1.2,1,2.3,2,3c-1.8,0.5-6.4,2-10.4,5.7c-1,0.9-3.7,4.1-4,4.6
			c-0.8,0.9-1.1,2-1,3.2c0.1,1.1,0.7,2.2,1.6,2.9c0.3,0.3,1.3,0.9,2.5,0.9c0.2,0,0.5,0,0.7-0.1c2-0.5,4.6-3.7,6.5-6.4
			c0.1-0.2,0.3-0.3,0.5-0.4c-0.6,4.3-3,15.1-5.3,24.8c-0.1,0.6,0,1.2,0.4,1.7c0.4,0.5,1,0.8,1.6,0.8h4.2c0.9,0,1.7-0.6,2-1.6
			l2.8-12.6l1,0.9c0,0,0.1,0.1,0.1,0.1v11.1c0,1.1,0.9,2,2,2h4c1.1,0,2-0.9,2-2V32.3c0-1.1-0.5-2.2-1.3-3l-2.8-2.6l0.6-3.1
			c3.1,1.2,7.1,1.6,8.3,1.6c0.6,0,1.2-0.1,1.8-0.5c1.2-0.9,1.4-2.6,1.4-3.4c0-2.2-2.5-3.1-5.9-4.3c-0.9-0.3-1.9-0.7-2.5-1l-2.7-3
			c-0.4-0.6-0.9-1.1-1.4-1.5c0.8-0.4,1.5-1,2-1.7c1.1-1.5,1.5-3.4,1-5.3c-0.5-2-2.2-3.6-4.2-4.2C33.3,0.2,32.7,0.2,32.2,0.2
			L32.2,0.2z M9.5,27.4c-0.4,0-0.7,0.1-1,0.3C8,28,7.7,28.5,7.5,29L4.6,42.7c-0.2,1,0.4,2.1,1.4,2.4l4.2,1.1c0.2,0,0.3,0.1,0.5,0.1
			c0.4,0,0.7-0.1,1-0.3c0.5-0.3,0.8-0.8,0.9-1.3L15.6,31c0.2-1-0.4-2.1-1.4-2.4L10,27.5C9.8,27.5,9.7,27.4,9.5,27.4L9.5,27.4z"/>
	</g>
	<g>
		<path class="st17" d="M8.8,45.5C8.9,45.5,8.9,45.5,8.8,45.5c0.1,0,1.7,0,1.7,0.4c0,0.6-0.4,1.1-1,1.1c0,0,0,0-0.1,0
			c-0.5,0-1-0.4-1-1C8.4,45.6,8.7,45.5,8.8,45.5 M8.8,44c-0.5,0-1,0.2-1.4,0.6c-0.4,0.4-0.5,0.9-0.5,1.5c0.1,1.3,1.2,2.4,2.5,2.4
			c0.1,0,0.1,0,0.2,0c1.3-0.1,2.4-1.2,2.4-2.6c0-1.8-2.2-1.9-3-1.9C8.9,44,8.9,44,8.8,44L8.8,44z"/>
	</g>
	<line class="st18" x1="14.6" y1="30.9" x2="15.9" y2="27.3"/>
</g>
<g id="圖層_11" class="st0">
	<g class="st8">
		<path class="st17" d="M30.5,3.9c0.3,0,0.6,0,1,0.1c1.2,0.3,2.2,1.3,2.5,2.5c0.6,2.4-1.2,4.5-3.4,4.5c-0.3,0-0.6,0-1-0.1
			c-1.2-0.3-2.2-1.3-2.5-2.5C26.4,6.1,28.2,3.9,30.5,3.9 M29.6,12.9c1.3,0,2.5,0.7,3.3,1.8l2.5,2.7c0.1,0.2,0.3,0.3,0.5,0.4
			c1.8,0.9,6.5,2.1,6.5,3.1c0,0,0,1.2-0.5,1.5c-0.1,0-0.3,0.1-0.6,0.1c-1.8,0-7.1-0.9-8.7-2.4l-1.2,6.1l3.2,3
			c0.4,0.4,0.6,0.9,0.6,1.4v12.6h-3.6v-9.9c0-0.5-0.2-1-0.6-1.4l-3.2-3l-3.2,14.3h-3.8c0,0,5.8-23.7,4.8-24.4
			c-0.3-0.2-0.6-0.3-0.9-0.3c-1.3,0-2.7,1.5-2.7,1.5s-3.2,4.8-4.8,5.1c-0.1,0-0.1,0-0.2,0c-0.6,0-1.1-0.5-1.1-0.5
			c-0.9-0.7-1-2-0.3-2.8c0,0,2.6-3.2,3.5-3.9c4-3.8,9-4.8,9-4.8C28.6,13,29.1,12.9,29.6,12.9 M10.3,28.2l3.7,1l-2.6,12.2l-3.7-1
			L10.3,28.2 M30.5,1.9c-1.7,0-3.4,0.8-4.4,2.2c-1.1,1.4-1.4,3.2-1,4.9c0.3,1,0.8,1.9,1.5,2.5c-1.8,0.5-5.7,1.9-9,5
			c-0.8,0.8-3.1,3.5-3.6,4.1c-0.7,0.8-1.1,1.9-0.9,3c0.1,1.1,0.7,2.1,1.5,2.7c0.3,0.2,1.2,0.9,2.4,0.9c0.2,0,0.4,0,0.7-0.1
			c1.9-0.4,4.2-3.3,5.8-5.7c-0.6,4.1-2.6,13.2-4.6,21.4c-0.1,0.6,0,1.2,0.4,1.7c0.4,0.5,1,0.8,1.6,0.8h3.8c0.9,0,1.7-0.6,2-1.6
			L29,32.9l0.6,0.6l0,9.8c0,1.1,0.9,2,2,2h3.6c1.1,0,2-0.9,2-2V30.7c0-1.1-0.4-2.1-1.2-2.9l-2.4-2.2l0.5-2.4c2.7,1,6.2,1.4,7.2,1.4
			c0.6,0,1.2-0.1,1.7-0.4c1.2-0.9,1.3-2.5,1.3-3.2c0-2.1-2.4-3-5.4-4.1c-0.8-0.3-1.6-0.6-2.1-0.8l-2.4-2.6c-0.3-0.4-0.7-0.8-1.1-1.2
			c0.6-0.4,1.2-0.8,1.6-1.4c1.1-1.4,1.4-3.2,1-4.9c-0.5-1.9-2-3.4-3.9-3.9C31.5,2,31,1.9,30.5,1.9L30.5,1.9z M10.3,26.2
			c-0.4,0-0.7,0.1-1,0.3c-0.5,0.3-0.8,0.8-0.9,1.3L5.8,39.9c-0.2,1,0.4,2.1,1.4,2.4l3.7,1c0.2,0,0.3,0.1,0.5,0.1
			c0.4,0,0.7-0.1,1-0.3c0.5-0.3,0.8-0.8,0.9-1.3L16,29.5c0.2-1-0.4-2.1-1.4-2.4l-3.7-1C10.7,26.2,10.5,26.2,10.3,26.2L10.3,26.2z"/>
	</g>
	<g class="st8">
		<path class="st17" d="M10.5,42.1c0.5,0,1,0.4,1,0.9c0,0.5-0.4,1-0.9,1c0,0,0,0-0.1,0c-0.5,0-1-0.4-1-0.9
			C9.5,42.6,9.9,42.2,10.5,42.1C10.4,42.1,10.5,42.1,10.5,42.1 M10.5,41.1c0,0-0.1,0-0.1,0c-0.5,0-1,0.3-1.4,0.7
			c-0.4,0.4-0.5,0.9-0.5,1.4c0.1,1,0.9,1.9,2,1.9c0,0,0.1,0,0.1,0c1.1-0.1,1.9-1,1.9-2.1C12.4,41.9,11.5,41.1,10.5,41.1L10.5,41.1z"
			/>
	</g>
	<line class="st19" x1="14.9" y1="29.5" x2="16" y2="26.3"/>
</g>
<g id="圖層_9" class="st0">
</g>
</svg>
