<svg id="圖層_1" data-name="圖層 1" xmlns="http://www.w3.org/2000/svg" viewBox="0 0 150 113.13"><defs><style>.cls-1{fill:#dd5000;}</style></defs><title>TEAM(ORANGE)</title><path class="cls-1" d="M100.94,58.54c-2.44-4.46-7.25-7.57-14.3-9.26a15.94,15.94,0,0,0,4.48-11.12v-3.6a16.12,16.12,0,0,0-32.24,0v3.6a16,16,0,0,0,4.34,11c-6.87,1.59-11.58,4.59-14,9q-1,1.71-1.18,6.29v8.19a3.51,3.51,0,1,0,7,0v-8c.07-1.46.28-2.92.28-3,2.74-4.88,12.15-6.6,19.38-6.6,8.09,0,17.43,2.14,20,6.75a18.3,18.3,0,0,1,.3,3.11v7.47a3.52,3.52,0,0,0,7,0V64.72C101.93,61.77,101.57,59.69,100.94,58.54Zm-16.85-24v3.6a9.09,9.09,0,0,1-18.18,0v-3.6a9.09,9.09,0,1,1,18.18,0Z" transform="translate(0 -18.43)"/><path class="cls-1" d="M52.93,114c-2.44-4.46-7.25-7.57-14.3-9.26a15.94,15.94,0,0,0,4.48-11.12V90a16.12,16.12,0,1,0-32.24,0v3.6a16,16,0,0,0,4.34,11c-6.87,1.59-11.58,4.59-14,9q-1,1.71-1.18,6.29V128a3.51,3.51,0,1,0,7,0v-8c.07-1.46.28-2.92.28-3,2.74-4.88,12.15-6.6,19.38-6.6,8.09,0,17.43,2.14,20,6.75a18.3,18.3,0,0,1,.3,3.11v7.47a3.52,3.52,0,0,0,7,0V120.2C53.92,117.26,53.56,115.18,52.93,114ZM36.08,90v3.6a9.09,9.09,0,0,1-18.18,0V90a9.09,9.09,0,1,1,18.18,0Z" transform="translate(0 -18.43)"/><path class="cls-1" d="M148.95,114c-2.44-4.46-7.25-7.57-14.3-9.26a15.94,15.94,0,0,0,4.48-11.12V90a16.12,16.12,0,1,0-32.24,0v3.6a16,16,0,0,0,4.34,11c-6.87,1.59-11.58,4.59-14,9q-1,1.71-1.18,6.29V128a3.51,3.51,0,1,0,7,0v-8c.07-1.46.28-2.92.28-3,2.74-4.88,12.15-6.6,19.38-6.6,8.09,0,17.43,2.14,20,6.75a18.3,18.3,0,0,1,.3,3.11v7.47a3.52,3.52,0,0,0,7,0V120.2C149.93,117.26,149.58,115.18,148.95,114ZM132.1,90v3.6a9.09,9.09,0,0,1-18.18,0V90a9.09,9.09,0,1,1,18.18,0Z" transform="translate(0 -18.43)"/></svg>