<svg id="圖層_1" data-name="圖層 1" xmlns="http://www.w3.org/2000/svg" viewBox="0 0 149.91 101.41"><defs><style>.cls-1{fill:#dd5000;}</style></defs><title>Student(ORANGE)</title><path class="cls-1" d="M149,54.32a3.08,3.08,0,0,0-2.17-3.1L75.16,24.53a2,2,0,0,0-1.86,0L2.22,50.6A3.38,3.38,0,0,0,0,53.7v9.93a3.41,3.41,0,0,0,1.86,3.1l9.62,4.35a2.68,2.68,0,0,0,3.72-1.86c.62-1.86,0-3.72-1.55-4.35L5.94,61.15V55.87L74.22,31l68.9,25.45v6.83L73.91,88.15,32.63,71.7,72.36,56.49a3.46,3.46,0,0,0,1.86-4.35c-.62-1.86-2.17-2.79-3.72-2.17L20.22,69.53c-1.24.31-1.86,1.86-1.86,3.1v49.66a3.12,3.12,0,1,0,6.21,0V75.74l10.24,4v32.28c0,4,4,13.35,40,13.35,36.62,0,40.66-9.31,40.66-13.35V80.7l32.28-11.48a3.38,3.38,0,0,0,2.17-3.1Zm-40,57.11c-.62.93-5.28,7.14-34.76,7.14-29.18,0-33.52-6.21-34.14-7.14V81.94L72.67,95c.31,0,.62.31.93.31a1.14,1.14,0,0,0,.93-.31l34.14-12.41Z" transform="translate(-0.04 -24.29)"/></svg>