<svg id="圖層_1" data-name="圖層 1" xmlns="http://www.w3.org/2000/svg" viewBox="0 0 149.75 134.48"><defs><style>.cls-1{fill:#dd5000;}</style></defs><title>BIRD(ORANGE)</title><path class="cls-1" d="M149.43,104.33c-3.3-3.3-83.45-84-88.25-88.55a28.12,28.12,0,0,0-20.11-8.1A28.39,28.39,0,0,0,12.86,29.89L1.75,35.29a3.18,3.18,0,0,0,0,5.4l12,6h.3A22.67,22.67,0,0,0,18,53.6a27.78,27.78,0,0,0,11.41,9,41.94,41.94,0,0,0-3.3,15.91A40.54,40.54,0,0,0,66.59,119h1.8v17.11h-15a3,3,0,1,0,0,6H77.09a3,3,0,0,0,0-6h-3V118.44a40,40,0,0,0,18.61-9h54a2.63,2.63,0,0,0,2.7-1.8,2.69,2.69,0,0,0,0-3.3ZM9.85,38l2.4-1.2v2.4ZM93.3,103.43H77.39A26.78,26.78,0,0,1,55.18,91.73a3,3,0,1,0-5.1,3.3,33.47,33.47,0,0,0,27.32,14.41h5.4a35.32,35.32,0,0,1-15.61,3.9A34.52,34.52,0,0,1,32.67,78.82a37.9,37.9,0,0,1,3.9-16.21c.3-.9.6-1.8,0-2.4a2.71,2.71,0,0,0-1.8-1.8A23.15,23.15,0,0,1,18.56,36.5,22.8,22.8,0,0,1,41.37,13.68a22.49,22.49,0,0,1,15.91,6.6c3.6,3.6,64.54,64.84,82.85,83.15Z" transform="translate(-0.25 -7.67)"/><path class="cls-1" d="M33,26a6,6,0,1,0,6,6,6,6,0,0,0-6-6Z" transform="translate(-0.25 -7.67)"/><path class="cls-1" d="M50.08,76.12a3,3,0,0,0-6,0,27.86,27.86,0,0,0,.9,7.2,2.92,2.92,0,0,0,3,2.4h.6a2.85,2.85,0,0,0,2.1-3.6,37,37,0,0,1-.6-6Z" transform="translate(-0.25 -7.67)"/></svg>