<?xml version="1.0" encoding="UTF-8"?>
<svg id="_圖層_1" data-name="圖層 1" xmlns="http://www.w3.org/2000/svg" version="1.1" viewBox="0 0 147 150">
  <defs>
    <style>
      .cls-1 {
        fill: none;
        stroke-width: 6px;
      }

      .cls-1, .cls-2 {
        stroke: #dd5000;
        stroke-miterlimit: 10;
      }

      .cls-1, .cls-3 {
        fill-rule: evenodd;
      }

      .cls-2 {
        fill: #dd5000;
        stroke-width: .2px;
      }

      .cls-3 {
        fill: #fff;
        stroke-width: 0px;
      }
    </style>
  </defs>
  <path class="cls-1" d="M95.6,106.6c-1.8,20.8-19.3,37.2-40.7,37.2S14.1,125.5,14.1,103s9.9-30.9,24.2-37.3"/>
  <polygon class="cls-3" points="90.4 96.8 104.7 120.3 98.7 123 88.6 105.3 33.9 103.8 31.2 54.5 36.8 54.5 39.5 87 43.4 94.2 51.2 97 90.4 96.8"/>
  <g>
    <path class="cls-2" d="M47.8,32.1c-7.7,0-14-6.3-14-14s6.3-14,14-14,14,6.3,14,14-6.3,14-14,14ZM47.8,9.2c-5,0-9,4-9,9s4,9,9,9,9-4,9-9-4-9-9-9Z"/>
    <path class="cls-2" d="M114.2,131.7c-3.3,0-6.6-1.7-8.3-4.6l-16.7-27.9h-37.8c-7.8,0-14.1-5.7-14.8-13.3l-2.1-36.8c-.4-7.8,5.6-14.5,13.4-15,7.7-.4,14.4,5.5,15,13.3l.5,8.2h20.4c4.5.2,7.9,3.6,7.9,8s-3.4,7.7-7.9,8h-.1s-19.4,0-19.4,0l.2,4h27.9c3.4,0,6.3,1.8,8,4.7l17.7,29.7,3-1.5c4.6-2.6,9.7-1.5,12.5,2.6,2.8,4.2,1.6,9.9-2.5,12.7-.3.2-6.5,4.1-12.5,7-.3.2-.6.3-.7.3h-.2c0,.1-.2.1-.3.2h-.2c0,0,0,0-.1.1-.9.2-1.7.4-2.6.4ZM90.6,94.2h1.4l18.1,30.4c1,1.7,3.3,2.6,5.3,2h.1c0,0,0,0,.1,0,0,0,.1,0,.2,0h.2c5.8-2.8,12-6.7,12.1-6.7,1.8-1.3,2.4-3.8,1.1-5.7h0c-1.3-1.9-3.5-2.3-5.9-1h0s-7.2,3.7-7.2,3.7l-20.1-33.8c-.8-1.4-2.2-2.2-3.8-2.2h-32.5s-.7-14-.7-14h24.5c1.8-.1,3.1-1.4,3.1-3s-1.3-2.9-3.1-3h-24.9l-.8-12.8c-.3-5.1-4.7-9-9.7-8.7-5,.3-8.9,4.7-8.7,9.7l2.1,36.7c.4,4.9,4.6,8.6,9.8,8.6h39.2Z"/>
  </g>
</svg>