<svg id="Layer_1" data-name="Layer 1" xmlns="http://www.w3.org/2000/svg" viewBox="0 0 149.65 126.06"><defs><style>.cls-1{fill:#db5326;}</style></defs><title>飯店聯票(ORANGE)</title><path class="cls-1" d="M146.26,138.53H133.73a3.38,3.38,0,0,1-3-1.87l-6.58-13.17H25.53L19,136.66a3.39,3.39,0,0,1-3,1.87H3.39A3.38,3.38,0,0,1,0,135.15V77.5a3.39,3.39,0,0,1,3.39-3.39H146.26a3.39,3.39,0,0,1,3.39,3.39v57.65A3.38,3.38,0,0,1,146.26,138.53Zm-10.44-6.77h7.06V80.88H6.77v50.88h7.06l6.58-13.16a3.39,3.39,0,0,1,3-1.88H126.21a3.4,3.4,0,0,1,3,1.88Z" transform="translate(0 -12.47)"/><path class="cls-1" d="M73.51,69.18h-6a18.08,18.08,0,0,0-18-18.06H35.14a18.08,18.08,0,0,0-18,18.06h-6A24.1,24.1,0,0,1,35.14,45.11h14.3A24.1,24.1,0,0,1,73.51,69.18Z" transform="translate(0 -12.47)"/><path class="cls-1" d="M73.51,69.6h-6a.42.42,0,0,1-.42-.42A17.65,17.65,0,0,0,49.44,51.55H35.14A17.65,17.65,0,0,0,17.51,69.18a.42.42,0,0,1-.42.42h-6a.42.42,0,0,1-.42-.42,24.52,24.52,0,0,1,24.49-24.5h14.3a24.52,24.52,0,0,1,24.49,24.5A.42.42,0,0,1,73.51,69.6Zm-5.6-.85h5.17A23.68,23.68,0,0,0,49.44,45.53H35.14A23.67,23.67,0,0,0,11.5,68.75h5.17a18.5,18.5,0,0,1,18.47-18h14.3A18.5,18.5,0,0,1,67.91,68.75Z" transform="translate(0 -12.47)"/><path class="cls-1" d="M138.58,69.18h-6a18.08,18.08,0,0,0-18-18.06h-14.3a18.08,18.08,0,0,0-18,18.06h-6a24.1,24.1,0,0,1,24.07-24.07h14.3A24.1,24.1,0,0,1,138.58,69.18Z" transform="translate(0 -12.47)"/><path class="cls-1" d="M138.58,69.6h-6a.42.42,0,0,1-.42-.42,17.65,17.65,0,0,0-17.63-17.63h-14.3A17.65,17.65,0,0,0,82.58,69.18a.42.42,0,0,1-.42.42h-6a.42.42,0,0,1-.42-.42,24.52,24.52,0,0,1,24.49-24.5h14.3A24.52,24.52,0,0,1,139,69.18.42.42,0,0,1,138.58,69.6Zm-5.6-.85h5.17a23.68,23.68,0,0,0-23.64-23.22h-14.3A23.67,23.67,0,0,0,76.57,68.75h5.17a18.5,18.5,0,0,1,18.47-18h14.3A18.5,18.5,0,0,1,133,68.75Z" transform="translate(0 -12.47)"/><path class="cls-1" d="M146.26,72.11a3.38,3.38,0,0,1-3.38-3.39V26.11a3.39,3.39,0,0,1,6.77,0V68.72A3.39,3.39,0,0,1,146.26,72.11Z" transform="translate(0 -12.47)"/><path class="cls-1" d="M3.39,72.11A3.39,3.39,0,0,1,0,68.72V26.11a3.39,3.39,0,0,1,6.77,0V68.72A3.38,3.38,0,0,1,3.39,72.11Z" transform="translate(0 -12.47)"/><path class="cls-1" d="M146.26,29.5a3.27,3.27,0,0,1-1-.16c-43-13.48-90.44-13.46-141,0a3.39,3.39,0,0,1-1.75-6.54C54.32,9,103,9,147.27,22.88a3.39,3.39,0,0,1-1,6.62Z" transform="translate(0 -12.47)"/></svg>