<?xml version="1.0" encoding="iso-8859-1"?>
<!-- Generator: Adobe Illustrator 19.0.0, SVG Export Plug-In . SVG Version: 6.00 Build 0)  -->
<svg version="1.1" id="&#x5716;&#x5C64;_1" xmlns="http://www.w3.org/2000/svg" xmlns:xlink="http://www.w3.org/1999/xlink" x="0px"
	 y="0px" width="50px" height="50px" viewBox="0 0 50 50" style="enable-background:new 0 0 50 50;" xml:space="preserve">
<g id="XMLID_1_">
	<path id="XMLID_3_" style="fill:#61BB46;" d="M23.702,0.785c0,0,2.733-2.265,5.295,0.947c2.098,2.63,1.599,7.12,1.404,10.127
		c-0.263,4.061-1.497,8.179-2.941,11.921c-1.359,3.52-3.057,6.762-5.142,9.884c-1.003,1.503-1.548,2.565-3.129,4.236
		c-0.354,0.375-0.683,0.434-0.965,0.217c-0.202-0.156-0.317-0.488-0.138-0.773c1.286-2.041,7.078-12.218,5.465-24.889
		C22.599,4.966,21.699,2.649,23.702,0.785z"/>
	<path id="XMLID_2_" style="fill:#007DBD;" d="M17.336,31.815c-0.305,0.514-0.626,1.158-0.239,1.43
		c0.702,0.492,1.11-0.15,1.615-1.133c1.573-3.07,2.42-6.548,3.094-10.085c0.63-3.311,0.471-7.448-0.848-11.67
		c-0.612-1.958-1.781-3.832-2.983-4.791c-1.421-1.134-2.979-1.047-4.244,0.906c-1.109,1.715,0.578,4.21,2.057,6.907
		c2.535,4.613,3.194,8.04,2.82,12.895c-0.111,1.447-0.341,3.245-0.841,4.554C17.609,31.248,17.453,31.617,17.336,31.815z"/>
	<path id="XMLID_4_" style="fill:#61BB46;" d="M41.332,8.528c-3.94-1.984-7.121,1.263-9.04,7.343
		c-2.15,6.792-5.208,16.262-10.637,21.964c-2.86,3.004-6.13,5.929-8.771,7.598c-2.739,1.73-4.482,2.477-5.823,3.259
		c-0.527,0.307-0.618,0.723-0.524,0.954c0.159,0.384,0.503,0.517,2.027,0.032c4.149-1.317,7.623-3.433,12.03-6.358
		c7.43-4.935,11.929-10.746,15.826-15.975c1.67-2.244,3.018-4.42,4.094-6.491C41.753,18.471,46.054,10.906,41.332,8.528z"/>
</g>
<g id="XMLID_5_">
</g>
<g id="XMLID_6_">
</g>
<g id="XMLID_7_">
</g>
<g id="XMLID_8_">
</g>
<g id="XMLID_9_">
</g>
<g id="XMLID_10_">
</g>
<g id="XMLID_11_">
</g>
<g id="XMLID_12_">
</g>
<g id="XMLID_13_">
</g>
<g id="XMLID_14_">
</g>
<g id="XMLID_15_">
</g>
<g id="XMLID_16_">
</g>
<g id="XMLID_17_">
</g>
<g id="XMLID_18_">
</g>
<g id="XMLID_19_">
</g>
</svg>
