<?xml version="1.0" encoding="utf-8"?>
<!-- Generator: Adobe Illustrator 28.3.0, SVG Export Plug-In . SVG Version: 6.00 Build 0)  -->
<svg version="1.1" id="圖層_1" xmlns="http://www.w3.org/2000/svg" xmlns:xlink="http://www.w3.org/1999/xlink" x="0px" y="0px"
	 viewBox="0 0 150 126" style="enable-background:new 0 0 150 126;" xml:space="preserve">
<style type="text/css">
	.st0{fill:#8E8476;}
	.st1{fill:none;}
	.st2{fill:#DC5104;}
	.st3{display:none;}
	.st4{display:inline;}
	.st5{fill:#787878;}
	.st6{display:inline;fill:#787878;}
</style>
<g id="Layer_1">
	<g>
		<polygon class="st0" points="41.1,124.4 53.6,58.6 94,58.6 81.5,124.4 		"/>
	</g>
	<path class="st1" d="M59.2,44.2c-0.4,0.7-0.9,1.3-1.3,2C58.4,45.6,58.8,44.9,59.2,44.2z"/>
	<path class="st1" d="M57.7,46.8c-0.4,0.6-0.7,1.3-1,1.9C57,48.1,57.3,47.5,57.7,46.8z"/>
	<path class="st1" d="M63.4,39.1c0.4-0.4,0.8-0.8,1.3-1.2C64.2,38.3,63.8,38.7,63.4,39.1z"/>
	<path class="st1" d="M56.5,49.2c-0.4,0.8-0.7,1.5-1,2.3C55.8,50.7,56.1,49.9,56.5,49.2z"/>
	<path class="st1" d="M60.8,42.1c-0.4,0.5-0.8,1-1.1,1.5C60,43.1,60.4,42.6,60.8,42.1z"/>
	<path class="st1" d="M69.4,34.2c-0.6,0.4-1.1,0.8-1.7,1.2C68.2,34.9,68.8,34.5,69.4,34.2z"/>
	<path class="st1" d="M66.8,36c-0.4,0.3-0.8,0.6-1.1,0.9C66,36.7,66.4,36.4,66.8,36z"/>
	<path class="st1" d="M62.7,39.9c-0.5,0.6-1,1.1-1.5,1.7C61.7,41,62.2,40.4,62.7,39.9z"/>
	<path class="st1" d="M54.4,54.6c0.2-0.8,0.5-1.7,0.8-2.5C55,52.9,54.7,53.7,54.4,54.6z"/>
	<path class="st2" d="M55.5,51.5c0.3-0.8,0.6-1.6,1-2.3c0.1-0.1,0.1-0.3,0.2-0.4c0.3-0.7,0.7-1.3,1-1.9c0.1-0.2,0.2-0.4,0.3-0.5
		c0.4-0.7,0.8-1.4,1.3-2c0.1-0.2,0.3-0.4,0.4-0.6c0.4-0.5,0.7-1,1.1-1.5c0.1-0.2,0.3-0.4,0.4-0.5c0.5-0.6,1-1.1,1.5-1.7
		c0.2-0.2,0.5-0.5,0.7-0.7c0.4-0.4,0.8-0.8,1.3-1.2c0.3-0.3,0.7-0.6,1-0.9c0.4-0.3,0.7-0.6,1.1-0.9c0.3-0.2,0.6-0.5,0.9-0.7
		c0.5-0.4,1.1-0.8,1.7-1.2c0.3-0.2,0.7-0.4,1-0.6c0.4-0.2,0.7-0.4,1.1-0.6c0.4-0.2,0.7-0.4,1.1-0.6l0,0l0,0c5-2.7,10.8-4.2,16.9-4.2
		h26c3-2.8,4.9-6.8,4.9-11.2c0-8.5-6.9-15.4-15.4-15.4c-6.8,0-13.5,4.5-20,13.4c-2.2,2.9-3.9,5.8-5.2,8.1c-1.3-2.3-3-5.2-5.2-8.1
		C67.9,6,61.2,1.5,54.4,1.5C45.9,1.5,39,8.4,39,16.9c0,4.4,1.9,8.4,4.9,11.2H19.4l-5,26.5h40c0.2-0.8,0.5-1.7,0.8-2.5
		C55.3,51.9,55.4,51.7,55.5,51.5z M104.9,8.3c4.7,0,8.6,3.8,8.6,8.6s-3.8,8.6-8.6,8.6H86.1C90.2,18.3,97.5,8.3,104.9,8.3z
		 M45.9,16.9c0-4.7,3.8-8.6,8.6-8.6c7.4,0,14.7,10,18.8,17.1H54.4C49.7,25.5,45.9,21.6,45.9,16.9z"/>
	<path class="st0" d="M70.4,33.5c-0.3,0.2-0.7,0.4-1,0.6C69.7,33.9,70,33.7,70.4,33.5z"/>
	<path class="st0" d="M67.7,35.3c-0.3,0.2-0.6,0.5-0.9,0.7C67.1,35.8,67.4,35.6,67.7,35.3z"/>
	<path class="st0" d="M65.7,37c-0.3,0.3-0.7,0.6-1,0.9C65,37.6,65.3,37.3,65.7,37z"/>
	<path class="st0" d="M89.4,28.5c-6.1,0-11.9,1.5-16.9,4.2l0,0c-0.4,0.2-0.7,0.4-1.1,0.6c-0.4,0.2-0.7,0.4-1.1,0.6
		c-0.3,0.2-0.7,0.4-1,0.6c-0.6,0.4-1.1,0.8-1.7,1.2c-0.3,0.2-0.6,0.5-0.9,0.7c-0.4,0.3-0.8,0.6-1.1,0.9c-0.3,0.3-0.7,0.6-1,0.9
		c-0.4,0.4-0.9,0.8-1.3,1.2c-0.2,0.2-0.5,0.5-0.7,0.7c-0.5,0.6-1,1.1-1.5,1.7c-0.1,0.2-0.3,0.4-0.4,0.5c-0.4,0.5-0.8,1-1.1,1.5
		c-0.1,0.2-0.3,0.4-0.4,0.6c-0.4,0.7-0.9,1.3-1.3,2c-0.1,0.2-0.2,0.4-0.3,0.5c-0.4,0.6-0.7,1.3-1,1.9c-0.1,0.1-0.1,0.3-0.2,0.4
		c-0.4,0.8-0.7,1.5-1,2.3c-0.1,0.2-0.1,0.4-0.2,0.6c-0.3,0.8-0.6,1.7-0.8,2.5h69.9h5.8l5-26.1C135.1,28.5,89.4,28.5,89.4,28.5z"/>
	<path class="st0" d="M56.7,48.8c-0.1,0.1-0.1,0.3-0.2,0.4C56.5,49,56.6,48.9,56.7,48.8z"/>
	<path class="st0" d="M62.7,39.9c0.2-0.2,0.5-0.5,0.7-0.7C63.2,39.4,62.9,39.6,62.7,39.9z"/>
	<path class="st0" d="M55.5,51.5c-0.1,0.2-0.1,0.4-0.2,0.6C55.3,51.9,55.4,51.7,55.5,51.5z"/>
	<path class="st0" d="M61.2,41.5c-0.1,0.2-0.3,0.4-0.4,0.5C60.9,41.9,61.1,41.7,61.2,41.5z"/>
	<path class="st0" d="M59.7,43.6c-0.1,0.2-0.3,0.4-0.4,0.6C59.4,44,59.5,43.8,59.7,43.6z"/>
	<path class="st0" d="M58,46.3c-0.1,0.2-0.2,0.4-0.3,0.5C57.8,46.6,57.9,46.5,58,46.3z"/>
</g>
<g id="圖層_2_00000061472501865872024940000016479367606835328425_" class="st3">
	<g class="st4">
		<path class="st5" d="M86.1,65.1l-10,52.8H49l10-52.8L86.1,65.1 M94,58.6H53.6l-12.5,65.8h40.4L94,58.6L94,58.6z"/>
	</g>
	<path class="st6" d="M115.4,28.1c3-2.8,4.9-6.8,4.9-11.2c0-8.5-6.9-15.4-15.4-15.4c-6.8,0-13.5,4.5-20,13.4
		c-2.2,2.9-3.9,5.8-5.2,8.1c-1.3-2.3-3-5.2-5.2-8.1C67.9,6,61.2,1.5,54.4,1.5C45.9,1.5,39,8.4,39,16.9c0,4.4,1.9,8.4,4.9,11.2H19.4
		l-5,26.5h37.9h5.9h66.2h5.8l5-26.5C135.2,28.1,115.4,28.1,115.4,28.1z M104.9,8.3c4.7,0,8.6,3.8,8.6,8.6s-3.8,8.6-8.6,8.6H86.1
		C90.2,18.3,97.5,8.3,104.9,8.3z M54.4,8.3c7.4,0,14.7,10,18.8,17.1H54.4c-4.7,0-8.6-3.8-8.6-8.6S49.7,8.3,54.4,8.3z M53.4,48.1
		H22.3l2.6-13.5h38.5C59.8,37.7,56.1,42,53.4,48.1z M124.8,48.1H60.7c4.9-8.8,12.1-12.4,14.8-13.5h51.9L124.8,48.1z"/>
</g>
</svg>
